<?xml version="1.0" encoding="UTF-8" standalone="no"?>
<svg width="230.011mm" height="88.1944mm"
 viewBox="0 0 652 250"
 xmlns="http://www.w3.org/2000/svg" xmlns:xlink="http://www.w3.org/1999/xlink"  version="1.2" baseProfile="tiny">
<title>Qt SVG Document</title>
<desc>MATLAB, The MathWorks, Inc. Version 25.2.0.2998904 R2025b</desc>
<defs>
</defs>
<g fill="none" stroke="black" stroke-width="1" fill-rule="evenodd" stroke-linecap="square" stroke-linejoin="bevel" >

<g fill="#ffffff" fill-opacity="1" stroke="none" transform="matrix(0.75,0,0,0.75,0,0)"
font-family="SimSun" font-size="9" font-weight="400" font-style="normal" 
>
<path vector-effect="none" fill-rule="evenodd" d="M0,0 L871,0 L871,334 L0,334 L0,0"/>
</g>

<g fill="#ffffff" fill-opacity="1" stroke="none" transform="matrix(7.5e-05,0,0,7.5e-05,0,0)"
font-family="SimSun" font-size="9" font-weight="400" font-style="normal" 
>
<path vector-effect="none" fill-rule="evenodd" d="M304150,965700 L304150,1.6983e+06 L1.26005e+06,1.6983e+06 L1.26005e+06,965700 L304150,965700"/>
</g>

<g fill="none" stroke="#333333" stroke-opacity="1" stroke-width="1.33333" stroke-linecap="butt" stroke-linejoin="miter" stroke-miterlimit="2" transform="matrix(0.75,0,0,0.75,0,0)"
font-family="SimSun" font-size="9" font-weight="400" font-style="normal" 
>
<path vector-effect="none" fill-rule="evenodd" d="M30.415,169.83 L30.415,96.57 L126.005,96.57 L126.005,169.83 L30.415,169.83"/>
</g>

<g fill="#d9d9d9" fill-opacity="1" stroke="#d9d9d9" stroke-opacity="1" stroke-width="1" stroke-linecap="square" stroke-linejoin="bevel" transform="matrix(0.75,0,0,0.75,47.7825,82.025)"
font-family="Times New Roman" font-size="11" font-weight="400" font-style="normal" 
>
<text fill="#d9d9d9" fill-opacity="1" stroke="none" xml:space="preserve" x="0" y="0" font-family="Times New Roman" font-size="11" font-weight="400" font-style="normal" 
 >Inputs</text>
</g>

<g fill="#d9d9d9" fill-opacity="1" stroke="#d9d9d9" stroke-opacity="1" stroke-width="1" stroke-linecap="square" stroke-linejoin="bevel" transform="matrix(0.75,0,0,0.75,42.9075,91.775)"
font-family="Times New Roman" font-size="11" font-weight="400" font-style="normal" 
>
<text fill="#d9d9d9" fill-opacity="1" stroke="none" xml:space="preserve" x="0" y="0" font-family="Times New Roman" font-size="11" font-weight="400" font-style="normal" 
 >u_d, u_q</text>
</g>

<g fill="#d9d9d9" fill-opacity="1" stroke="#d9d9d9" stroke-opacity="1" stroke-width="1" stroke-linecap="square" stroke-linejoin="bevel" transform="matrix(0.75,0,0,0.75,45.1575,101.525)"
font-family="Times New Roman" font-size="11" font-weight="400" font-style="normal" 
>
<text fill="#d9d9d9" fill-opacity="1" stroke="none" xml:space="preserve" x="0" y="0" font-family="Times New Roman" font-size="11" font-weight="400" font-style="normal" 
 >i_d, i_q</text>
</g>

<g fill="#d9d9d9" fill-opacity="1" stroke="#d9d9d9" stroke-opacity="1" stroke-width="1" stroke-linecap="square" stroke-linejoin="bevel" transform="matrix(0.75,0,0,0.75,41.4075,111.275)"
font-family="Times New Roman" font-size="11" font-weight="400" font-style="normal" 
>
<text fill="#d9d9d9" fill-opacity="1" stroke="none" xml:space="preserve" x="0" y="0" font-family="Times New Roman" font-size="11" font-weight="400" font-style="normal" 
 >omega_m</text>
</g>

<g fill="#d9d9d9" fill-opacity="1" stroke="#d9d9d9" stroke-opacity="1" stroke-width="1" stroke-linecap="square" stroke-linejoin="bevel" transform="matrix(0.75,0,0,0.75,38.7825,121.025)"
font-family="Times New Roman" font-size="11" font-weight="400" font-style="normal" 
>
<text fill="#d9d9d9" fill-opacity="1" stroke="none" xml:space="preserve" x="0" y="0" font-family="Times New Roman" font-size="11" font-weight="400" font-style="normal" 
 >steady_flag</text>
</g>

<g fill="#f5f5f5" fill-opacity="1" stroke="none" transform="matrix(7.5e-05,0,0,7.5e-05,0,0)"
font-family="Times New Roman" font-size="11" font-weight="400" font-style="normal" 
>
<path vector-effect="none" fill-rule="evenodd" d="M1.6511e+06,1.1322e+06 L1.6511e+06,1.48185e+06 L2.73735e+06,1.48185e+06 L2.73735e+06,1.1322e+06 L1.6511e+06,1.1322e+06"/>
</g>

<g fill="none" stroke="#333333" stroke-opacity="1" stroke-width="1.33333" stroke-linecap="butt" stroke-linejoin="miter" stroke-miterlimit="2" transform="matrix(0.75,0,0,0.75,0,0)"
font-family="Times New Roman" font-size="11" font-weight="400" font-style="normal" 
>
<path vector-effect="none" fill-rule="evenodd" d="M165.11,148.185 L165.11,113.22 L273.735,113.22 L273.735,148.185 L165.11,148.185"/>
</g>

<g fill="#d9d9d9" fill-opacity="1" stroke="#d9d9d9" stroke-opacity="1" stroke-width="1" stroke-linecap="square" stroke-linejoin="bevel" transform="matrix(0.75,0,0,0.75,143.192,89.9019)"
font-family="Times New Roman" font-size="11" font-weight="400" font-style="normal" 
>
<text fill="#d9d9d9" fill-opacity="1" stroke="none" xml:space="preserve" x="0" y="0" font-family="Times New Roman" font-size="11" font-weight="400" font-style="normal" 
 >Input power</text>
</g>

<g fill="#d9d9d9" fill-opacity="1" stroke="#d9d9d9" stroke-opacity="1" stroke-width="1" stroke-linecap="square" stroke-linejoin="bevel" transform="matrix(0.75,0,0,0.75,145.817,99.6519)"
font-family="Times New Roman" font-size="11" font-weight="400" font-style="normal" 
>
<text fill="#d9d9d9" fill-opacity="1" stroke="none" xml:space="preserve" x="0" y="0" font-family="Times New Roman" font-size="11" font-weight="400" font-style="normal" 
 >calculation</text>
</g>

<g fill="#d9d9d9" fill-opacity="1" stroke="#d9d9d9" stroke-opacity="1" stroke-width="1" stroke-linecap="square" stroke-linejoin="bevel" transform="matrix(0.75,0,0,0.75,156.692,109.402)"
font-family="Times New Roman" font-size="11" font-weight="400" font-style="normal" 
>
<text fill="#d9d9d9" fill-opacity="1" stroke="none" xml:space="preserve" x="0" y="0" font-family="Times New Roman" font-size="11" font-weight="400" font-style="normal" 
 >P_in</text>
</g>

<g fill="#f5f5f5" fill-opacity="1" stroke="none" transform="matrix(7.5e-05,0,0,7.5e-05,0,0)"
font-family="Times New Roman" font-size="11" font-weight="400" font-style="normal" 
>
<path vector-effect="none" fill-rule="evenodd" d="M3.1284e+06,1.1322e+06 L3.1284e+06,1.48185e+06 L4.21465e+06,1.48185e+06 L4.21465e+06,1.1322e+06 L3.1284e+06,1.1322e+06"/>
</g>

<g fill="none" stroke="#333333" stroke-opacity="1" stroke-width="1.33333" stroke-linecap="butt" stroke-linejoin="miter" stroke-miterlimit="2" transform="matrix(0.75,0,0,0.75,0,0)"
font-family="Times New Roman" font-size="11" font-weight="400" font-style="normal" 
>
<path vector-effect="none" fill-rule="evenodd" d="M312.84,148.185 L312.84,113.22 L421.465,113.22 L421.465,148.185 L312.84,148.185"/>
</g>

<g fill="#d9d9d9" fill-opacity="1" stroke="#d9d9d9" stroke-opacity="1" stroke-width="1" stroke-linecap="square" stroke-linejoin="bevel" transform="matrix(0.75,0,0,0.75,254.739,94.7769)"
font-family="Times New Roman" font-size="11" font-weight="400" font-style="normal" 
>
<text fill="#d9d9d9" fill-opacity="1" stroke="none" xml:space="preserve" x="0" y="0" font-family="Times New Roman" font-size="11" font-weight="400" font-style="normal" 
 >Steady-state</text>
</g>

<g fill="#d9d9d9" fill-opacity="1" stroke="#d9d9d9" stroke-opacity="1" stroke-width="1" stroke-linecap="square" stroke-linejoin="bevel" transform="matrix(0.75,0,0,0.75,252.489,104.527)"
font-family="Times New Roman" font-size="11" font-weight="400" font-style="normal" 
>
<text fill="#d9d9d9" fill-opacity="1" stroke="none" xml:space="preserve" x="0" y="0" font-family="Times New Roman" font-size="11" font-weight="400" font-style="normal" 
 >decision S(k)</text>
</g>

<g fill="#f5f5f5" fill-opacity="1" stroke="none" transform="matrix(7.5e-05,0,0,7.5e-05,0,0)"
font-family="Times New Roman" font-size="11" font-weight="400" font-style="normal" 
>
<path vector-effect="none" fill-rule="evenodd" d="M4.6057e+06,1.1322e+06 L4.6057e+06,1.48185e+06 L5.6485e+06,1.48185e+06 L5.6485e+06,1.1322e+06 L4.6057e+06,1.1322e+06"/>
</g>

<g fill="none" stroke="#333333" stroke-opacity="1" stroke-width="1.33333" stroke-linecap="butt" stroke-linejoin="miter" stroke-miterlimit="2" transform="matrix(0.75,0,0,0.75,0,0)"
font-family="Times New Roman" font-size="11" font-weight="400" font-style="normal" 
>
<path vector-effect="none" fill-rule="evenodd" d="M460.57,148.185 L460.57,113.22 L564.85,113.22 L564.85,148.185 L460.57,148.185"/>
</g>

<g fill="#d9d9d9" fill-opacity="1" stroke="#d9d9d9" stroke-opacity="1" stroke-width="1" stroke-linecap="square" stroke-linejoin="bevel" transform="matrix(0.75,0,0,0.75,368.782,94.7769)"
font-family="Times New Roman" font-size="11" font-weight="400" font-style="normal" 
>
<text fill="#d9d9d9" fill-opacity="1" stroke="none" xml:space="preserve" x="0" y="0" font-family="Times New Roman" font-size="11" font-weight="400" font-style="normal" 
 >Dynamic</text>
</g>

<g fill="#d9d9d9" fill-opacity="1" stroke="#d9d9d9" stroke-opacity="1" stroke-width="1" stroke-linecap="square" stroke-linejoin="bevel" transform="matrix(0.75,0,0,0.75,374.032,104.527)"
font-family="Times New Roman" font-size="11" font-weight="400" font-style="normal" 
>
<text fill="#d9d9d9" fill-opacity="1" stroke="none" xml:space="preserve" x="0" y="0" font-family="Times New Roman" font-size="11" font-weight="400" font-style="normal" 
 >freeze</text>
</g>

<g fill="#f5f5f5" fill-opacity="1" stroke="none" transform="matrix(7.5e-05,0,0,7.5e-05,0,0)"
font-family="Times New Roman" font-size="11" font-weight="400" font-style="normal" 
>
<path vector-effect="none" fill-rule="evenodd" d="M6.03955e+06,1.1322e+06 L6.03955e+06,1.48185e+06 L7.08235e+06,1.48185e+06 L7.08235e+06,1.1322e+06 L6.03955e+06,1.1322e+06"/>
</g>

<g fill="none" stroke="#333333" stroke-opacity="1" stroke-width="1.33333" stroke-linecap="butt" stroke-linejoin="miter" stroke-miterlimit="2" transform="matrix(0.75,0,0,0.75,0,0)"
font-family="Times New Roman" font-size="11" font-weight="400" font-style="normal" 
>
<path vector-effect="none" fill-rule="evenodd" d="M603.955,148.185 L603.955,113.22 L708.235,113.22 L708.235,148.185 L603.955,148.185"/>
</g>

<g fill="#d9d9d9" fill-opacity="1" stroke="#d9d9d9" stroke-opacity="1" stroke-width="1" stroke-linecap="square" stroke-linejoin="bevel" transform="matrix(0.75,0,0,0.75,470.696,94.7769)"
font-family="Times New Roman" font-size="11" font-weight="400" font-style="normal" 
>
<text fill="#d9d9d9" fill-opacity="1" stroke="none" xml:space="preserve" x="0" y="0" font-family="Times New Roman" font-size="11" font-weight="400" font-style="normal" 
 >Perturbation</text>
</g>

<g fill="#d9d9d9" fill-opacity="1" stroke="#d9d9d9" stroke-opacity="1" stroke-width="1" stroke-linecap="square" stroke-linejoin="bevel" transform="matrix(0.75,0,0,0.75,477.071,104.527)"
font-family="Times New Roman" font-size="11" font-weight="400" font-style="normal" 
>
<text fill="#d9d9d9" fill-opacity="1" stroke="none" xml:space="preserve" x="0" y="0" font-family="Times New Roman" font-size="11" font-weight="400" font-style="normal" 
 >injection</text>
</g>

<g fill="#f5f5f5" fill-opacity="1" stroke="none" transform="matrix(7.5e-05,0,0,7.5e-05,0,0)"
font-family="Times New Roman" font-size="11" font-weight="400" font-style="normal" 
>
<path vector-effect="none" fill-rule="evenodd" d="M1.6511e+06,2.0313e+06 L1.6511e+06,2.38095e+06 L2.73735e+06,2.38095e+06 L2.73735e+06,2.0313e+06 L1.6511e+06,2.0313e+06"/>
</g>

<g fill="none" stroke="#333333" stroke-opacity="1" stroke-width="1.33333" stroke-linecap="butt" stroke-linejoin="miter" stroke-miterlimit="2" transform="matrix(0.75,0,0,0.75,0,0)"
font-family="Times New Roman" font-size="11" font-weight="400" font-style="normal" 
>
<path vector-effect="none" fill-rule="evenodd" d="M165.11,238.095 L165.11,203.13 L273.735,203.13 L273.735,238.095 L165.11,238.095"/>
</g>

<g fill="#d9d9d9" fill-opacity="1" stroke="#d9d9d9" stroke-opacity="1" stroke-width="1" stroke-linecap="square" stroke-linejoin="bevel" transform="matrix(0.75,0,0,0.75,153.692,162.209)"
font-family="Times New Roman" font-size="11" font-weight="400" font-style="normal" 
>
<text fill="#d9d9d9" fill-opacity="1" stroke="none" xml:space="preserve" x="0" y="0" font-family="Times New Roman" font-size="11" font-weight="400" font-style="normal" 
 >Power</text>
</g>

<g fill="#d9d9d9" fill-opacity="1" stroke="#d9d9d9" stroke-opacity="1" stroke-width="1" stroke-linecap="square" stroke-linejoin="bevel" transform="matrix(0.75,0,0,0.75,140.567,171.959)"
font-family="Times New Roman" font-size="11" font-weight="400" font-style="normal" 
>
<text fill="#d9d9d9" fill-opacity="1" stroke="none" xml:space="preserve" x="0" y="0" font-family="Times New Roman" font-size="11" font-weight="400" font-style="normal" 
 >demodulation</text>
</g>

<g fill="#f5f5f5" fill-opacity="1" stroke="none" transform="matrix(7.5e-05,0,0,7.5e-05,0,0)"
font-family="Times New Roman" font-size="11" font-weight="400" font-style="normal" 
>
<path vector-effect="none" fill-rule="evenodd" d="M3.1284e+06,2.0313e+06 L3.1284e+06,2.38095e+06 L4.21465e+06,2.38095e+06 L4.21465e+06,2.0313e+06 L3.1284e+06,2.0313e+06"/>
</g>

<g fill="none" stroke="#333333" stroke-opacity="1" stroke-width="1.33333" stroke-linecap="butt" stroke-linejoin="miter" stroke-miterlimit="2" transform="matrix(0.75,0,0,0.75,0,0)"
font-family="Times New Roman" font-size="11" font-weight="400" font-style="normal" 
>
<path vector-effect="none" fill-rule="evenodd" d="M312.84,238.095 L312.84,203.13 L421.465,203.13 L421.465,238.095 L312.84,238.095"/>
</g>

<g fill="#d9d9d9" fill-opacity="1" stroke="#d9d9d9" stroke-opacity="1" stroke-width="1" stroke-linecap="square" stroke-linejoin="bevel" transform="matrix(0.75,0,0,0.75,258.864,162.209)"
font-family="Times New Roman" font-size="11" font-weight="400" font-style="normal" 
>
<text fill="#d9d9d9" fill-opacity="1" stroke="none" xml:space="preserve" x="0" y="0" font-family="Times New Roman" font-size="11" font-weight="400" font-style="normal" 
 >Low-pass</text>
</g>

<g fill="#d9d9d9" fill-opacity="1" stroke="#d9d9d9" stroke-opacity="1" stroke-width="1" stroke-linecap="square" stroke-linejoin="bevel" transform="matrix(0.75,0,0,0.75,267.114,171.959)"
font-family="Times New Roman" font-size="11" font-weight="400" font-style="normal" 
>
<text fill="#d9d9d9" fill-opacity="1" stroke="none" xml:space="preserve" x="0" y="0" font-family="Times New Roman" font-size="11" font-weight="400" font-style="normal" 
 >filter</text>
</g>

<g fill="#f5f5f5" fill-opacity="1" stroke="none" transform="matrix(7.5e-05,0,0,7.5e-05,0,0)"
font-family="Times New Roman" font-size="11" font-weight="400" font-style="normal" 
>
<path vector-effect="none" fill-rule="evenodd" d="M4.6057e+06,2.0313e+06 L4.6057e+06,2.38095e+06 L5.6485e+06,2.38095e+06 L5.6485e+06,2.0313e+06 L4.6057e+06,2.0313e+06"/>
</g>

<g fill="none" stroke="#333333" stroke-opacity="1" stroke-width="1.33333" stroke-linecap="butt" stroke-linejoin="miter" stroke-miterlimit="2" transform="matrix(0.75,0,0,0.75,0,0)"
font-family="Times New Roman" font-size="11" font-weight="400" font-style="normal" 
>
<path vector-effect="none" fill-rule="evenodd" d="M460.57,238.095 L460.57,203.13 L564.85,203.13 L564.85,238.095 L460.57,238.095"/>
</g>

<g fill="#d9d9d9" fill-opacity="1" stroke="#d9d9d9" stroke-opacity="1" stroke-width="1" stroke-linecap="square" stroke-linejoin="bevel" transform="matrix(0.75,0,0,0.75,369.532,162.209)"
font-family="Times New Roman" font-size="11" font-weight="400" font-style="normal" 
>
<text fill="#d9d9d9" fill-opacity="1" stroke="none" xml:space="preserve" x="0" y="0" font-family="Times New Roman" font-size="11" font-weight="400" font-style="normal" 
 >Gradient</text>
</g>

<g fill="#d9d9d9" fill-opacity="1" stroke="#d9d9d9" stroke-opacity="1" stroke-width="1" stroke-linecap="square" stroke-linejoin="bevel" transform="matrix(0.75,0,0,0.75,366.907,171.959)"
font-family="Times New Roman" font-size="11" font-weight="400" font-style="normal" 
>
<text fill="#d9d9d9" fill-opacity="1" stroke="none" xml:space="preserve" x="0" y="0" font-family="Times New Roman" font-size="11" font-weight="400" font-style="normal" 
 >estimation</text>
</g>

<g fill="#f5f5f5" fill-opacity="1" stroke="none" transform="matrix(7.5e-05,0,0,7.5e-05,0,0)"
font-family="Times New Roman" font-size="11" font-weight="400" font-style="normal" 
>
<path vector-effect="none" fill-rule="evenodd" d="M6.03955e+06,2.0313e+06 L6.03955e+06,2.38095e+06 L7.08235e+06,2.38095e+06 L7.08235e+06,2.0313e+06 L6.03955e+06,2.0313e+06"/>
</g>

<g fill="none" stroke="#333333" stroke-opacity="1" stroke-width="1.33333" stroke-linecap="butt" stroke-linejoin="miter" stroke-miterlimit="2" transform="matrix(0.75,0,0,0.75,0,0)"
font-family="Times New Roman" font-size="11" font-weight="400" font-style="normal" 
>
<path vector-effect="none" fill-rule="evenodd" d="M603.955,238.095 L603.955,203.13 L708.235,203.13 L708.235,238.095 L603.955,238.095"/>
</g>

<g fill="#d9d9d9" fill-opacity="1" stroke="#d9d9d9" stroke-opacity="1" stroke-width="1" stroke-linecap="square" stroke-linejoin="bevel" transform="matrix(0.75,0,0,0.75,474.446,162.209)"
font-family="Times New Roman" font-size="11" font-weight="400" font-style="normal" 
>
<text fill="#d9d9d9" fill-opacity="1" stroke="none" xml:space="preserve" x="0" y="0" font-family="Times New Roman" font-size="11" font-weight="400" font-style="normal" 
 >Projection</text>
</g>

<g fill="#d9d9d9" fill-opacity="1" stroke="#d9d9d9" stroke-opacity="1" stroke-width="1" stroke-linecap="square" stroke-linejoin="bevel" transform="matrix(0.75,0,0,0.75,480.446,171.959)"
font-family="Times New Roman" font-size="11" font-weight="400" font-style="normal" 
>
<text fill="#d9d9d9" fill-opacity="1" stroke="none" xml:space="preserve" x="0" y="0" font-family="Times New Roman" font-size="11" font-weight="400" font-style="normal" 
 >update</text>
</g>

<g fill="#f5f5f5" fill-opacity="1" stroke="none" transform="matrix(7.5e-05,0,0,7.5e-05,0,0)"
font-family="Times New Roman" font-size="11" font-weight="400" font-style="normal" 
>
<path vector-effect="none" fill-rule="evenodd" d="M7.3865e+06,2.0313e+06 L7.3865e+06,2.38095e+06 L8.21205e+06,2.38095e+06 L8.21205e+06,2.0313e+06 L7.3865e+06,2.0313e+06"/>
</g>

<g fill="none" stroke="#333333" stroke-opacity="1" stroke-width="1.33333" stroke-linecap="butt" stroke-linejoin="miter" stroke-miterlimit="2" transform="matrix(0.75,0,0,0.75,0,0)"
font-family="Times New Roman" font-size="11" font-weight="400" font-style="normal" 
>
<path vector-effect="none" fill-rule="evenodd" d="M738.65,238.095 L738.65,203.13 L821.205,203.13 L821.205,238.095 L738.65,238.095"/>
</g>

<g fill="#d9d9d9" fill-opacity="1" stroke="#d9d9d9" stroke-opacity="1" stroke-width="1" stroke-linecap="square" stroke-linejoin="bevel" transform="matrix(0.75,0,0,0.75,577.446,162.209)"
font-family="Times New Roman" font-size="11" font-weight="400" font-style="normal" 
>
<text fill="#d9d9d9" fill-opacity="1" stroke="none" xml:space="preserve" x="0" y="0" font-family="Times New Roman" font-size="11" font-weight="400" font-style="normal" 
 >Rate</text>
</g>

<g fill="#d9d9d9" fill-opacity="1" stroke="#d9d9d9" stroke-opacity="1" stroke-width="1" stroke-linecap="square" stroke-linejoin="bevel" transform="matrix(0.75,0,0,0.75,577.071,171.959)"
font-family="Times New Roman" font-size="11" font-weight="400" font-style="normal" 
>
<text fill="#d9d9d9" fill-opacity="1" stroke="none" xml:space="preserve" x="0" y="0" font-family="Times New Roman" font-size="11" font-weight="400" font-style="normal" 
 >limit</text>
</g>

<g fill="#ffffff" fill-opacity="1" stroke="none" transform="matrix(7.5e-05,0,0,7.5e-05,0,0)"
font-family="Times New Roman" font-size="11" font-weight="400" font-style="normal" 
>
<path vector-effect="none" fill-rule="evenodd" d="M7.3865e+06,1.04895e+06 L7.3865e+06,1.665e+06 L8.29895e+06,1.665e+06 L8.29895e+06,1.04895e+06 L7.3865e+06,1.04895e+06"/>
</g>

<g fill="none" stroke="#333333" stroke-opacity="1" stroke-width="1.33333" stroke-linecap="butt" stroke-linejoin="miter" stroke-miterlimit="2" transform="matrix(0.75,0,0,0.75,0,0)"
font-family="Times New Roman" font-size="11" font-weight="400" font-style="normal" 
>
<path vector-effect="none" fill-rule="evenodd" d="M738.65,166.5 L738.65,104.895 L829.895,104.895 L829.895,166.5 L738.65,166.5"/>
</g>

<g fill="#d9d9d9" fill-opacity="1" stroke="#d9d9d9" stroke-opacity="1" stroke-width="1" stroke-linecap="square" stroke-linejoin="bevel" transform="matrix(0.75,0,0,0.75,574.704,88.7731)"
font-family="Times New Roman" font-size="11" font-weight="400" font-style="normal" 
>
<text fill="#d9d9d9" fill-opacity="1" stroke="none" xml:space="preserve" x="0" y="0" font-family="Times New Roman" font-size="11" font-weight="400" font-style="normal" 
 >Outputs</text>
</g>

<g fill="#d9d9d9" fill-opacity="1" stroke="#d9d9d9" stroke-opacity="1" stroke-width="1" stroke-linecap="square" stroke-linejoin="bevel" transform="matrix(0.75,0,0,0.75,578.454,98.5231)"
font-family="Times New Roman" font-size="11" font-weight="400" font-style="normal" 
>
<text fill="#d9d9d9" fill-opacity="1" stroke="none" xml:space="preserve" x="0" y="0" font-family="Times New Roman" font-size="11" font-weight="400" font-style="normal" 
 >i_d^*</text>
</g>

<g fill="#d9d9d9" fill-opacity="1" stroke="#d9d9d9" stroke-opacity="1" stroke-width="1" stroke-linecap="square" stroke-linejoin="bevel" transform="matrix(0.75,0,0,0.75,559.329,108.273)"
font-family="Times New Roman" font-size="11" font-weight="400" font-style="normal" 
>
<text fill="#d9d9d9" fill-opacity="1" stroke="none" xml:space="preserve" x="0" y="0" font-family="Times New Roman" font-size="11" font-weight="400" font-style="normal" 
 >optimizer_active</text>
</g>

<g fill="#d9d9d9" fill-opacity="1" stroke="#d9d9d9" stroke-opacity="1" stroke-width="1" stroke-linecap="square" stroke-linejoin="bevel" transform="matrix(0.75,0,0,0.75,562.329,118.023)"
font-family="Times New Roman" font-size="11" font-weight="400" font-style="normal" 
>
<text fill="#d9d9d9" fill-opacity="1" stroke="none" xml:space="preserve" x="0" y="0" font-family="Times New Roman" font-size="11" font-weight="400" font-style="normal" 
 >constraint_flag</text>
</g>

<g fill="#0d0d0d" fill-opacity="1" stroke="#0d0d0d" stroke-opacity="1" stroke-width="1" stroke-linecap="square" stroke-linejoin="bevel" transform="matrix(0.75,0,0,0.75,249.75,48.4531)"
font-family="Times New Roman" font-size="11" font-weight="400" font-style="normal" 
>
<text fill="#0d0d0d" fill-opacity="1" stroke="none" xml:space="preserve" x="0" y="0" font-family="Times New Roman" font-size="11" font-weight="400" font-style="normal" 
 >Outer model-free optimizer subsystem logic</text>
</g>

<g fill="#0d0d0d" fill-opacity="1" stroke="#0d0d0d" stroke-opacity="1" stroke-width="1" stroke-linecap="square" stroke-linejoin="bevel" transform="matrix(0.75,0,0,0.75,209.704,67.1844)"
font-family="Times New Roman" font-size="11" font-weight="400" font-style="normal" 
>
<text fill="#0d0d0d" fill-opacity="1" stroke="none" xml:space="preserve" x="0" y="0" font-family="Times New Roman" font-size="11" font-weight="400" font-style="normal" 
 >steady_flag = 0: freeze and hold i_d^*    steady_flag = 1: slow update by P_in trend</text>
</g>

<g fill="#0d0d0d" fill-opacity="1" stroke="#0d0d0d" stroke-opacity="1" stroke-width="1" stroke-linecap="square" stroke-linejoin="bevel" transform="matrix(0.75,0,0,0.75,466.301,197.174)"
font-family="Times New Roman" font-size="11" font-weight="400" font-style="normal" 
>
<text fill="#0d0d0d" fill-opacity="1" stroke="none" xml:space="preserve" x="0" y="0" font-family="Times New Roman" font-size="11" font-weight="400" font-style="normal" 
 >Current, voltage and safety boundary</text>
</g>

<g fill="#0d0d0d" fill-opacity="1" stroke="#0d0d0d" stroke-opacity="1" stroke-width="1" stroke-linecap="square" stroke-linejoin="bevel" transform="matrix(0.75,0,0,0.75,513.551,206.924)"
font-family="Times New Roman" font-size="11" font-weight="400" font-style="normal" 
>
<text fill="#0d0d0d" fill-opacity="1" stroke="none" xml:space="preserve" x="0" y="0" font-family="Times New Roman" font-size="11" font-weight="400" font-style="normal" 
 >projection</text>
</g>

<g fill="#0d0d0d" fill-opacity="1" stroke="#0d0d0d" stroke-opacity="1" stroke-width="1.53333" stroke-linecap="butt" stroke-linejoin="round" transform="matrix(0.75,0,0,0.75,0,0)"
font-family="Times New Roman" font-size="11" font-weight="400" font-style="normal" 
>
<polyline fill="none" vector-effect="none" points="126.005,133.2 158.177,133.2 " />
</g>

<g fill="none" stroke="#0d0d0d" stroke-opacity="1" stroke-width="0.666667" stroke-linecap="butt" stroke-linejoin="round" transform="matrix(0.75,0,0,0.75,0,0)"
font-family="Times New Roman" font-size="11" font-weight="400" font-style="normal" 
>
<path vector-effect="none" fill-rule="evenodd" d="M154.443,129.2 L165.11,133.2 L158.177,133.2 L154.443,129.2"/>
<path vector-effect="none" fill-rule="evenodd" d="M165.11,133.2 L154.443,137.2 L158.177,133.2 L165.11,133.2"/>
</g>

<g fill="#0d0d0d" fill-opacity="1" stroke="none" transform="matrix(7.5e-05,0,0,7.5e-05,0,0)"
font-family="Times New Roman" font-size="11" font-weight="400" font-style="normal" 
>
<path vector-effect="none" fill-rule="evenodd" d="M1.6511e+06,1.332e+06 L1.54443e+06,1.292e+06 L1.58177e+06,1.332e+06 L1.54443e+06,1.372e+06 L1.6511e+06,1.332e+06"/>
</g>

<g fill="#0d0d0d" fill-opacity="1" stroke="#0d0d0d" stroke-opacity="1" stroke-width="1.53333" stroke-linecap="butt" stroke-linejoin="round" transform="matrix(0.75,0,0,0.75,0,0)"
font-family="Times New Roman" font-size="11" font-weight="400" font-style="normal" 
>
<polyline fill="none" vector-effect="none" points="273.735,130.536 305.907,130.536 " />
</g>

<g fill="none" stroke="#0d0d0d" stroke-opacity="1" stroke-width="0.666667" stroke-linecap="butt" stroke-linejoin="round" transform="matrix(0.75,0,0,0.75,0,0)"
font-family="Times New Roman" font-size="11" font-weight="400" font-style="normal" 
>
<path vector-effect="none" fill-rule="evenodd" d="M302.173,126.536 L312.84,130.536 L305.907,130.536 L302.173,126.536"/>
<path vector-effect="none" fill-rule="evenodd" d="M312.84,130.536 L302.173,134.536 L305.907,130.536 L312.84,130.536"/>
</g>

<g fill="#0d0d0d" fill-opacity="1" stroke="none" transform="matrix(7.5e-05,0,0,7.5e-05,0,0)"
font-family="Times New Roman" font-size="11" font-weight="400" font-style="normal" 
>
<path vector-effect="none" fill-rule="evenodd" d="M3.1284e+06,1.30536e+06 L3.02173e+06,1.26536e+06 L3.05907e+06,1.30536e+06 L3.02173e+06,1.34536e+06 L3.1284e+06,1.30536e+06"/>
</g>

<g fill="#0d0d0d" fill-opacity="1" stroke="#0d0d0d" stroke-opacity="1" stroke-width="1.53333" stroke-linecap="butt" stroke-linejoin="round" transform="matrix(0.75,0,0,0.75,0,0)"
font-family="Times New Roman" font-size="11" font-weight="400" font-style="normal" 
>
<polyline fill="none" vector-effect="none" points="421.465,130.536 453.637,130.536 " />
</g>

<g fill="none" stroke="#0d0d0d" stroke-opacity="1" stroke-width="0.666667" stroke-linecap="butt" stroke-linejoin="round" transform="matrix(0.75,0,0,0.75,0,0)"
font-family="Times New Roman" font-size="11" font-weight="400" font-style="normal" 
>
<path vector-effect="none" fill-rule="evenodd" d="M449.903,126.536 L460.57,130.536 L453.637,130.536 L449.903,126.536"/>
<path vector-effect="none" fill-rule="evenodd" d="M460.57,130.536 L449.903,134.536 L453.637,130.536 L460.57,130.536"/>
</g>

<g fill="#0d0d0d" fill-opacity="1" stroke="none" transform="matrix(7.5e-05,0,0,7.5e-05,0,0)"
font-family="Times New Roman" font-size="11" font-weight="400" font-style="normal" 
>
<path vector-effect="none" fill-rule="evenodd" d="M4.6057e+06,1.30536e+06 L4.49903e+06,1.26536e+06 L4.53637e+06,1.30536e+06 L4.49903e+06,1.34536e+06 L4.6057e+06,1.30536e+06"/>
</g>

<g fill="#0d0d0d" fill-opacity="1" stroke="#0d0d0d" stroke-opacity="1" stroke-width="1.53333" stroke-linecap="butt" stroke-linejoin="round" transform="matrix(0.75,0,0,0.75,0,0)"
font-family="Times New Roman" font-size="11" font-weight="400" font-style="normal" 
>
<polyline fill="none" vector-effect="none" points="564.85,130.536 597.022,130.536 " />
</g>

<g fill="none" stroke="#0d0d0d" stroke-opacity="1" stroke-width="0.666667" stroke-linecap="butt" stroke-linejoin="round" transform="matrix(0.75,0,0,0.75,0,0)"
font-family="Times New Roman" font-size="11" font-weight="400" font-style="normal" 
>
<path vector-effect="none" fill-rule="evenodd" d="M593.288,126.536 L603.955,130.536 L597.022,130.536 L593.288,126.536"/>
<path vector-effect="none" fill-rule="evenodd" d="M603.955,130.536 L593.288,134.536 L597.022,130.536 L603.955,130.536"/>
</g>

<g fill="#0d0d0d" fill-opacity="1" stroke="none" transform="matrix(7.5e-05,0,0,7.5e-05,0,0)"
font-family="Times New Roman" font-size="11" font-weight="400" font-style="normal" 
>
<path vector-effect="none" fill-rule="evenodd" d="M6.03955e+06,1.30536e+06 L5.93288e+06,1.26536e+06 L5.97022e+06,1.30536e+06 L5.93288e+06,1.34536e+06 L6.03955e+06,1.30536e+06"/>
</g>

<g fill="#0d0d0d" fill-opacity="1" stroke="#0d0d0d" stroke-opacity="1" stroke-width="1.53333" stroke-linecap="butt" stroke-linejoin="round" transform="matrix(0.75,0,0,0.75,0,0)"
font-family="Times New Roman" font-size="11" font-weight="400" font-style="normal" 
>
<polyline fill="none" vector-effect="none" points="708.235,133.2 731.717,133.2 " />
</g>

<g fill="none" stroke="#0d0d0d" stroke-opacity="1" stroke-width="0.666667" stroke-linecap="butt" stroke-linejoin="round" transform="matrix(0.75,0,0,0.75,0,0)"
font-family="Times New Roman" font-size="11" font-weight="400" font-style="normal" 
>
<path vector-effect="none" fill-rule="evenodd" d="M727.983,129.2 L738.65,133.2 L731.717,133.2 L727.983,129.2"/>
<path vector-effect="none" fill-rule="evenodd" d="M738.65,133.2 L727.983,137.2 L731.717,133.2 L738.65,133.2"/>
</g>

<g fill="#0d0d0d" fill-opacity="1" stroke="none" transform="matrix(7.5e-05,0,0,7.5e-05,0,0)"
font-family="Times New Roman" font-size="11" font-weight="400" font-style="normal" 
>
<path vector-effect="none" fill-rule="evenodd" d="M7.3865e+06,1.332e+06 L7.27983e+06,1.292e+06 L7.31717e+06,1.332e+06 L7.27983e+06,1.372e+06 L7.3865e+06,1.332e+06"/>
</g>

<g fill="#0d0d0d" fill-opacity="1" stroke="#0d0d0d" stroke-opacity="1" stroke-width="1.4" stroke-linecap="butt" stroke-linejoin="round" transform="matrix(0.75,0,0,0.75,0,0)"
font-family="Times New Roman" font-size="11" font-weight="400" font-style="normal" 
>
<polyline fill="none" vector-effect="none" points="218.988,148.185 218.988,203.13 " />
</g>

<g fill="#0d0d0d" fill-opacity="1" stroke="#0d0d0d" stroke-opacity="1" stroke-width="1.53333" stroke-linecap="butt" stroke-linejoin="round" transform="matrix(0.75,0,0,0.75,0,0)"
font-family="Times New Roman" font-size="11" font-weight="400" font-style="normal" 
>
<polyline fill="none" vector-effect="none" points="218.988,203.13 171.711,218.325 " />
</g>

<g fill="none" stroke="#0d0d0d" stroke-opacity="1" stroke-width="0.666667" stroke-linecap="butt" stroke-linejoin="round" transform="matrix(0.75,0,0,0.75,0,0)"
font-family="Times New Roman" font-size="11" font-weight="400" font-style="normal" 
>
<path vector-effect="none" fill-rule="evenodd" d="M176.489,220.99 L165.11,220.446 L171.711,218.325 L176.489,220.99"/>
<path vector-effect="none" fill-rule="evenodd" d="M165.11,220.446 L174.041,213.374 L171.711,218.325 L165.11,220.446"/>
</g>

<g fill="#0d0d0d" fill-opacity="1" stroke="none" transform="matrix(7.5e-05,0,0,7.5e-05,0,0)"
font-family="Times New Roman" font-size="11" font-weight="400" font-style="normal" 
>
<path vector-effect="none" fill-rule="evenodd" d="M1.6511e+06,2.20446e+06 L1.76489e+06,2.2099e+06 L1.71711e+06,2.18325e+06 L1.74041e+06,2.13374e+06 L1.6511e+06,2.20446e+06"/>
</g>

<g fill="#0d0d0d" fill-opacity="1" stroke="#0d0d0d" stroke-opacity="1" stroke-width="1.53333" stroke-linecap="butt" stroke-linejoin="round" transform="matrix(0.75,0,0,0.75,0,0)"
font-family="Times New Roman" font-size="11" font-weight="400" font-style="normal" 
>
<polyline fill="none" vector-effect="none" points="273.735,220.446 305.907,220.446 " />
</g>

<g fill="none" stroke="#0d0d0d" stroke-opacity="1" stroke-width="0.666667" stroke-linecap="butt" stroke-linejoin="round" transform="matrix(0.75,0,0,0.75,0,0)"
font-family="Times New Roman" font-size="11" font-weight="400" font-style="normal" 
>
<path vector-effect="none" fill-rule="evenodd" d="M302.173,216.446 L312.84,220.446 L305.907,220.446 L302.173,216.446"/>
<path vector-effect="none" fill-rule="evenodd" d="M312.84,220.446 L302.173,224.446 L305.907,220.446 L312.84,220.446"/>
</g>

<g fill="#0d0d0d" fill-opacity="1" stroke="none" transform="matrix(7.5e-05,0,0,7.5e-05,0,0)"
font-family="Times New Roman" font-size="11" font-weight="400" font-style="normal" 
>
<path vector-effect="none" fill-rule="evenodd" d="M3.1284e+06,2.20446e+06 L3.02173e+06,2.16446e+06 L3.05907e+06,2.20446e+06 L3.02173e+06,2.24446e+06 L3.1284e+06,2.20446e+06"/>
</g>

<g fill="#0d0d0d" fill-opacity="1" stroke="#0d0d0d" stroke-opacity="1" stroke-width="1.53333" stroke-linecap="butt" stroke-linejoin="round" transform="matrix(0.75,0,0,0.75,0,0)"
font-family="Times New Roman" font-size="11" font-weight="400" font-style="normal" 
>
<polyline fill="none" vector-effect="none" points="421.465,220.446 453.637,220.446 " />
</g>

<g fill="none" stroke="#0d0d0d" stroke-opacity="1" stroke-width="0.666667" stroke-linecap="butt" stroke-linejoin="round" transform="matrix(0.75,0,0,0.75,0,0)"
font-family="Times New Roman" font-size="11" font-weight="400" font-style="normal" 
>
<path vector-effect="none" fill-rule="evenodd" d="M449.903,216.446 L460.57,220.446 L453.637,220.446 L449.903,216.446"/>
<path vector-effect="none" fill-rule="evenodd" d="M460.57,220.446 L449.903,224.446 L453.637,220.446 L460.57,220.446"/>
</g>

<g fill="#0d0d0d" fill-opacity="1" stroke="none" transform="matrix(7.5e-05,0,0,7.5e-05,0,0)"
font-family="Times New Roman" font-size="11" font-weight="400" font-style="normal" 
>
<path vector-effect="none" fill-rule="evenodd" d="M4.6057e+06,2.20446e+06 L4.49903e+06,2.16446e+06 L4.53637e+06,2.20446e+06 L4.49903e+06,2.24446e+06 L4.6057e+06,2.20446e+06"/>
</g>

<g fill="#0d0d0d" fill-opacity="1" stroke="#0d0d0d" stroke-opacity="1" stroke-width="1.53333" stroke-linecap="butt" stroke-linejoin="round" transform="matrix(0.75,0,0,0.75,0,0)"
font-family="Times New Roman" font-size="11" font-weight="400" font-style="normal" 
>
<polyline fill="none" vector-effect="none" points="564.85,220.446 597.022,220.446 " />
</g>

<g fill="none" stroke="#0d0d0d" stroke-opacity="1" stroke-width="0.666667" stroke-linecap="butt" stroke-linejoin="round" transform="matrix(0.75,0,0,0.75,0,0)"
font-family="Times New Roman" font-size="11" font-weight="400" font-style="normal" 
>
<path vector-effect="none" fill-rule="evenodd" d="M593.288,216.446 L603.955,220.446 L597.022,220.446 L593.288,216.446"/>
<path vector-effect="none" fill-rule="evenodd" d="M603.955,220.446 L593.288,224.446 L597.022,220.446 L603.955,220.446"/>
</g>

<g fill="#0d0d0d" fill-opacity="1" stroke="none" transform="matrix(7.5e-05,0,0,7.5e-05,0,0)"
font-family="Times New Roman" font-size="11" font-weight="400" font-style="normal" 
>
<path vector-effect="none" fill-rule="evenodd" d="M6.03955e+06,2.20446e+06 L5.93288e+06,2.16446e+06 L5.97022e+06,2.20446e+06 L5.93288e+06,2.24446e+06 L6.03955e+06,2.20446e+06"/>
</g>

<g fill="#0d0d0d" fill-opacity="1" stroke="#0d0d0d" stroke-opacity="1" stroke-width="1.53333" stroke-linecap="butt" stroke-linejoin="round" transform="matrix(0.75,0,0,0.75,0,0)"
font-family="Times New Roman" font-size="11" font-weight="400" font-style="normal" 
>
<polyline fill="none" vector-effect="none" points="708.235,220.446 731.717,220.446 " />
</g>

<g fill="none" stroke="#0d0d0d" stroke-opacity="1" stroke-width="0.666667" stroke-linecap="butt" stroke-linejoin="round" transform="matrix(0.75,0,0,0.75,0,0)"
font-family="Times New Roman" font-size="11" font-weight="400" font-style="normal" 
>
<path vector-effect="none" fill-rule="evenodd" d="M727.983,216.446 L738.65,220.446 L731.717,220.446 L727.983,216.446"/>
<path vector-effect="none" fill-rule="evenodd" d="M738.65,220.446 L727.983,224.446 L731.717,220.446 L738.65,220.446"/>
</g>

<g fill="#0d0d0d" fill-opacity="1" stroke="none" transform="matrix(7.5e-05,0,0,7.5e-05,0,0)"
font-family="Times New Roman" font-size="11" font-weight="400" font-style="normal" 
>
<path vector-effect="none" fill-rule="evenodd" d="M7.3865e+06,2.20446e+06 L7.27983e+06,2.16446e+06 L7.31717e+06,2.20446e+06 L7.27983e+06,2.24446e+06 L7.3865e+06,2.20446e+06"/>
</g>

<g fill="#0d0d0d" fill-opacity="1" stroke="#0d0d0d" stroke-opacity="1" stroke-width="1.53333" stroke-linecap="butt" stroke-linejoin="round" transform="matrix(0.75,0,0,0.75,0,0)"
font-family="Times New Roman" font-size="11" font-weight="400" font-style="normal" 
>
<polyline fill="none" vector-effect="none" points="783.838,203.13 783.838,170.103 " />
</g>

<g fill="none" stroke="#0d0d0d" stroke-opacity="1" stroke-width="0.666667" stroke-linecap="butt" stroke-linejoin="round" transform="matrix(0.75,0,0,0.75,0,0)"
font-family="Times New Roman" font-size="11" font-weight="400" font-style="normal" 
>
<path vector-effect="none" fill-rule="evenodd" d="M779.838,173.837 L783.838,163.17 L783.838,170.103 L779.838,173.837"/>
<path vector-effect="none" fill-rule="evenodd" d="M783.838,163.17 L787.838,173.837 L783.838,170.103 L783.838,163.17"/>
</g>

<g fill="#0d0d0d" fill-opacity="1" stroke="none" transform="matrix(7.5e-05,0,0,7.5e-05,0,0)"
font-family="Times New Roman" font-size="11" font-weight="400" font-style="normal" 
>
<path vector-effect="none" fill-rule="evenodd" d="M7.83838e+06,1.6317e+06 L7.79838e+06,1.73837e+06 L7.83838e+06,1.70103e+06 L7.87838e+06,1.73837e+06 L7.83838e+06,1.6317e+06"/>
</g>

<g fill="#0d0d0d" fill-opacity="1" stroke="#0d0d0d" stroke-opacity="1" stroke-width="1.4" stroke-linecap="butt" stroke-linejoin="round" transform="matrix(0.75,0,0,0.75,0,0)"
font-family="Times New Roman" font-size="11" font-weight="400" font-style="normal" 
>
<polyline fill="none" vector-effect="none" points="512.71,148.185 512.71,181.485 " />
</g>

<g fill="#0d0d0d" fill-opacity="1" stroke="#0d0d0d" stroke-opacity="1" stroke-width="1.53333" stroke-linecap="butt" stroke-linejoin="round" transform="matrix(0.75,0,0,0.75,0,0)"
font-family="Times New Roman" font-size="11" font-weight="400" font-style="normal" 
>
<polyline fill="none" vector-effect="none" points="512.71,181.485 649.239,202.095 " />
</g>

<g fill="none" stroke="#0d0d0d" stroke-opacity="1" stroke-width="0.666667" stroke-linecap="butt" stroke-linejoin="round" transform="matrix(0.75,0,0,0.75,0,0)"
font-family="Times New Roman" font-size="11" font-weight="400" font-style="normal" 
>
<path vector-effect="none" fill-rule="evenodd" d="M646.145,197.583 L656.095,203.13 L649.239,202.095 L646.145,197.583"/>
<path vector-effect="none" fill-rule="evenodd" d="M656.095,203.13 L644.951,205.493 L649.239,202.095 L656.095,203.13"/>
</g>

<g fill="#0d0d0d" fill-opacity="1" stroke="none" transform="matrix(7.5e-05,0,0,7.5e-05,0,0)"
font-family="Times New Roman" font-size="11" font-weight="400" font-style="normal" 
>
<path vector-effect="none" fill-rule="evenodd" d="M6.56095e+06,2.0313e+06 L6.46145e+06,1.97583e+06 L6.49239e+06,2.02095e+06 L6.44951e+06,2.05493e+06 L6.56095e+06,2.0313e+06"/>
</g>

<g fill="#0d0d0d" fill-opacity="1" stroke="#0d0d0d" stroke-opacity="1" stroke-width="1" stroke-linecap="square" stroke-linejoin="bevel" transform="matrix(0.75,0,0,0.75,398.141,130.121)"
font-family="Times New Roman" font-size="11" font-weight="400" font-style="normal" 
>
<text fill="#0d0d0d" fill-opacity="1" stroke="none" xml:space="preserve" x="0" y="0" font-family="Times New Roman" font-size="11" font-weight="400" font-style="normal" 
 >hold during dynamic state</text>
</g>
</g>
</svg>
