<?xml version="1.0" encoding="UTF-8" standalone="no"?>
<svg width="230.011mm" height="105.128mm"
 viewBox="0 0 652 298"
 xmlns="http://www.w3.org/2000/svg" xmlns:xlink="http://www.w3.org/1999/xlink"  version="1.2" baseProfile="tiny">
<title>Qt SVG Document</title>
<desc>MATLAB, The MathWorks, Inc. Version 25.2.0.2998904 R2025b</desc>
<defs>
</defs>
<g fill="none" stroke="black" stroke-width="1" fill-rule="evenodd" stroke-linecap="square" stroke-linejoin="bevel" >

<g fill="#ffffff" fill-opacity="1" stroke="none" transform="matrix(0.75,0,0,0.75,0,0)"
font-family="SimSun" font-size="9" font-weight="400" font-style="normal" 
>
<path vector-effect="none" fill-rule="evenodd" d="M0,0 L871,0 L871,398 L0,398 L0,0"/>
</g>

<g fill="#ffffff" fill-opacity="1" stroke="none" transform="matrix(7.5e-05,0,0,7.5e-05,0,0)"
font-family="SimSun" font-size="9" font-weight="400" font-style="normal" 
>
<path vector-effect="none" fill-rule="evenodd" d="M260700,972650 L260700,1.29025e+06 L1.1297e+06,1.29025e+06 L1.1297e+06,972650 L260700,972650"/>
</g>

<g fill="none" stroke="#333333" stroke-opacity="1" stroke-width="1.33333" stroke-linecap="butt" stroke-linejoin="miter" stroke-miterlimit="2" transform="matrix(0.75,0,0,0.75,0,0)"
font-family="SimSun" font-size="9" font-weight="400" font-style="normal" 
>
<path vector-effect="none" fill-rule="evenodd" d="M26.07,129.025 L26.07,97.265 L112.97,97.265 L112.97,129.025 L26.07,129.025"/>
</g>

<g fill="#d9d9d9" fill-opacity="1" stroke="#d9d9d9" stroke-opacity="1" stroke-width="1" stroke-linecap="square" stroke-linejoin="bevel" transform="matrix(0.75,0,0,0.75,33.39,86.4838)"
font-family="Times New Roman" font-size="11" font-weight="400" font-style="normal" 
>
<text fill="#d9d9d9" fill-opacity="1" stroke="none" xml:space="preserve" x="0" y="0" font-family="Times New Roman" font-size="11" font-weight="400" font-style="normal" 
 >omega_ref</text>
</g>

<g fill="#f5f5f5" fill-opacity="1" stroke="none" transform="matrix(7.5e-05,0,0,7.5e-05,0,0)"
font-family="Times New Roman" font-size="11" font-weight="400" font-style="normal" 
>
<path vector-effect="none" fill-rule="evenodd" d="M1.5642e+06,913100 L1.5642e+06,1.3895e+06 L2.91115e+06,1.3895e+06 L2.91115e+06,913100 L1.5642e+06,913100"/>
</g>

<g fill="none" stroke="#333333" stroke-opacity="1" stroke-width="1.33333" stroke-linecap="butt" stroke-linejoin="miter" stroke-miterlimit="2" transform="matrix(0.75,0,0,0.75,0,0)"
font-family="Times New Roman" font-size="11" font-weight="400" font-style="normal" 
>
<path vector-effect="none" fill-rule="evenodd" d="M156.42,138.95 L156.42,91.31 L291.115,91.31 L291.115,138.95 L156.42,138.95"/>
</g>

<g fill="#d9d9d9" fill-opacity="1" stroke="#d9d9d9" stroke-opacity="1" stroke-width="1" stroke-linecap="square" stroke-linejoin="bevel" transform="matrix(0.75,0,0,0.75,128.451,87.9725)"
font-family="Times New Roman" font-size="11" font-weight="400" font-style="normal" 
>
<text fill="#d9d9d9" fill-opacity="1" stroke="none" xml:space="preserve" x="0" y="0" font-family="Times New Roman" font-size="11" font-weight="400" font-style="normal" 
 >Speed_Controller_PID</text>
</g>

<g fill="#f5f5f5" fill-opacity="1" stroke="none" transform="matrix(7.5e-05,0,0,7.5e-05,0,0)"
font-family="Times New Roman" font-size="11" font-weight="400" font-style="normal" 
>
<path vector-effect="none" fill-rule="evenodd" d="M3.3891e+06,913100 L3.3891e+06,1.3895e+06 L4.82295e+06,1.3895e+06 L4.82295e+06,913100 L3.3891e+06,913100"/>
</g>

<g fill="none" stroke="#333333" stroke-opacity="1" stroke-width="1.33333" stroke-linecap="butt" stroke-linejoin="miter" stroke-miterlimit="2" transform="matrix(0.75,0,0,0.75,0,0)"
font-family="Times New Roman" font-size="11" font-weight="400" font-style="normal" 
>
<path vector-effect="none" fill-rule="evenodd" d="M338.91,138.95 L338.91,91.31 L482.295,91.31 L482.295,138.95 L338.91,138.95"/>
</g>

<g fill="#d9d9d9" fill-opacity="1" stroke="#d9d9d9" stroke-opacity="1" stroke-width="1" stroke-linecap="square" stroke-linejoin="bevel" transform="matrix(0.75,0,0,0.75,268.952,87.9725)"
font-family="Times New Roman" font-size="11" font-weight="400" font-style="normal" 
>
<text fill="#d9d9d9" fill-opacity="1" stroke="none" xml:space="preserve" x="0" y="0" font-family="Times New Roman" font-size="11" font-weight="400" font-style="normal" 
 >Current_Controller_PI</text>
</g>

<g fill="#f5f5f5" fill-opacity="1" stroke="none" transform="matrix(7.5e-05,0,0,7.5e-05,0,0)"
font-family="Times New Roman" font-size="11" font-weight="400" font-style="normal" 
>
<path vector-effect="none" fill-rule="evenodd" d="M5.3878e+06,913100 L5.3878e+06,1.3895e+06 L6.82165e+06,1.3895e+06 L6.82165e+06,913100 L5.3878e+06,913100"/>
</g>

<g fill="none" stroke="#333333" stroke-opacity="1" stroke-width="1.33333" stroke-linecap="butt" stroke-linejoin="miter" stroke-miterlimit="2" transform="matrix(0.75,0,0,0.75,0,0)"
font-family="Times New Roman" font-size="11" font-weight="400" font-style="normal" 
>
<path vector-effect="none" fill-rule="evenodd" d="M538.78,138.95 L538.78,91.31 L682.165,91.31 L682.165,138.95 L538.78,138.95"/>
</g>

<g fill="#d9d9d9" fill-opacity="1" stroke="#d9d9d9" stroke-opacity="1" stroke-width="1" stroke-linecap="square" stroke-linejoin="bevel" transform="matrix(0.75,0,0,0.75,428.229,87.9725)"
font-family="Times New Roman" font-size="11" font-weight="400" font-style="normal" 
>
<text fill="#d9d9d9" fill-opacity="1" stroke="none" xml:space="preserve" x="0" y="0" font-family="Times New Roman" font-size="11" font-weight="400" font-style="normal" 
 >PMSM_dq_Plant</text>
</g>

<g fill="#ffffff" fill-opacity="1" stroke="none" transform="matrix(7.5e-05,0,0,7.5e-05,0,0)"
font-family="Times New Roman" font-size="11" font-weight="400" font-style="normal" 
>
<path vector-effect="none" fill-rule="evenodd" d="M7.51685e+06,972650 L7.51685e+06,1.29025e+06 L8.29895e+06,1.29025e+06 L8.29895e+06,972650 L7.51685e+06,972650"/>
</g>

<g fill="none" stroke="#333333" stroke-opacity="1" stroke-width="1.33333" stroke-linecap="butt" stroke-linejoin="miter" stroke-miterlimit="2" transform="matrix(0.75,0,0,0.75,0,0)"
font-family="Times New Roman" font-size="11" font-weight="400" font-style="normal" 
>
<path vector-effect="none" fill-rule="evenodd" d="M751.685,129.025 L751.685,97.265 L829.895,97.265 L829.895,129.025 L751.685,129.025"/>
</g>

<g fill="#d9d9d9" fill-opacity="1" stroke="#d9d9d9" stroke-opacity="1" stroke-width="1" stroke-linecap="square" stroke-linejoin="bevel" transform="matrix(0.75,0,0,0.75,575.843,86.4838)"
font-family="Times New Roman" font-size="11" font-weight="400" font-style="normal" 
>
<text fill="#d9d9d9" fill-opacity="1" stroke="none" xml:space="preserve" x="0" y="0" font-family="Times New Roman" font-size="11" font-weight="400" font-style="normal" 
 >omega_m</text>
</g>

<g fill="#ffffff" fill-opacity="1" stroke="none" transform="matrix(7.5e-05,0,0,7.5e-05,0,0)"
font-family="Times New Roman" font-size="11" font-weight="400" font-style="normal" 
>
<path vector-effect="none" fill-rule="evenodd" d="M5.57898e+06,377150 L5.57898e+06,655050 L6.62178e+06,655050 L6.62178e+06,377150 L5.57898e+06,377150"/>
</g>

<g fill="none" stroke="#333333" stroke-opacity="1" stroke-width="1.33333" stroke-linecap="butt" stroke-linejoin="miter" stroke-miterlimit="2" transform="matrix(0.75,0,0,0.75,0,0)"
font-family="Times New Roman" font-size="11" font-weight="400" font-style="normal" 
>
<path vector-effect="none" fill-rule="evenodd" d="M557.898,65.505 L557.898,37.715 L662.178,37.715 L662.178,65.505 L557.898,65.505"/>
</g>

<g fill="#d9d9d9" fill-opacity="1" stroke="#d9d9d9" stroke-opacity="1" stroke-width="1" stroke-linecap="square" stroke-linejoin="bevel" transform="matrix(0.75,0,0,0.75,436.529,40.3325)"
font-family="Times New Roman" font-size="11" font-weight="400" font-style="normal" 
>
<text fill="#d9d9d9" fill-opacity="1" stroke="none" xml:space="preserve" x="0" y="0" font-family="Times New Roman" font-size="11" font-weight="400" font-style="normal" 
 >load_torque</text>
</g>

<g fill="#f5f5f5" fill-opacity="1" stroke="none" transform="matrix(7.5e-05,0,0,7.5e-05,0,0)"
font-family="Times New Roman" font-size="11" font-weight="400" font-style="normal" 
>
<path vector-effect="none" fill-rule="evenodd" d="M3.43255e+06,1.7468e+06 L3.43255e+06,2.16365e+06 L4.7795e+06,2.16365e+06 L4.7795e+06,1.7468e+06 L3.43255e+06,1.7468e+06"/>
</g>

<g fill="none" stroke="#333333" stroke-opacity="1" stroke-width="1.33333" stroke-linecap="butt" stroke-linejoin="miter" stroke-miterlimit="2" transform="matrix(0.75,0,0,0.75,0,0)"
font-family="Times New Roman" font-size="11" font-weight="400" font-style="normal" 
>
<path vector-effect="none" fill-rule="evenodd" d="M343.255,216.365 L343.255,174.68 L477.95,174.68 L477.95,216.365 L343.255,216.365"/>
</g>

<g fill="#d9d9d9" fill-opacity="1" stroke="#d9d9d9" stroke-opacity="1" stroke-width="1" stroke-linecap="square" stroke-linejoin="bevel" transform="matrix(0.75,0,0,0.75,267.077,148.267)"
font-family="Times New Roman" font-size="11" font-weight="400" font-style="normal" 
>
<text fill="#d9d9d9" fill-opacity="1" stroke="none" xml:space="preserve" x="0" y="0" font-family="Times New Roman" font-size="11" font-weight="400" font-style="normal" 
 >Id_Reference_Manager</text>
</g>

<g fill="#f5f5f5" fill-opacity="1" stroke="none" transform="matrix(7.5e-05,0,0,7.5e-05,0,0)"
font-family="Times New Roman" font-size="11" font-weight="400" font-style="normal" 
>
<path vector-effect="none" fill-rule="evenodd" d="M5.3878e+06,1.80635e+06 L5.3878e+06,2.2629e+06 L6.99545e+06,2.2629e+06 L6.99545e+06,1.80635e+06 L5.3878e+06,1.80635e+06"/>
</g>

<g fill="none" stroke="#333333" stroke-opacity="1" stroke-width="1.33333" stroke-linecap="butt" stroke-linejoin="miter" stroke-miterlimit="2" transform="matrix(0.75,0,0,0.75,0,0)"
font-family="Times New Roman" font-size="11" font-weight="400" font-style="normal" 
>
<path vector-effect="none" fill-rule="evenodd" d="M538.78,226.29 L538.78,180.635 L699.545,180.635 L699.545,226.29 L538.78,226.29"/>
</g>

<g fill="#d9d9d9" fill-opacity="1" stroke="#d9d9d9" stroke-opacity="1" stroke-width="1" stroke-linecap="square" stroke-linejoin="bevel" transform="matrix(0.75,0,0,0.75,416.747,154.222)"
font-family="Times New Roman" font-size="11" font-weight="400" font-style="normal" 
>
<text fill="#d9d9d9" fill-opacity="1" stroke="none" xml:space="preserve" x="0" y="0" font-family="Times New Roman" font-size="11" font-weight="400" font-style="normal" 
 >Power_Efficiency_Monitor</text>
</g>

<g fill="#ffffff" fill-opacity="1" stroke="none" transform="matrix(7.5e-05,0,0,7.5e-05,0,0)"
font-family="Times New Roman" font-size="11" font-weight="400" font-style="normal" 
>
<path vector-effect="none" fill-rule="evenodd" d="M7.51685e+06,1.84605e+06 L7.51685e+06,2.20335e+06 L8.29895e+06,2.20335e+06 L8.29895e+06,1.84605e+06 L7.51685e+06,1.84605e+06"/>
</g>

<g fill="none" stroke="#333333" stroke-opacity="1" stroke-width="1.33333" stroke-linecap="butt" stroke-linejoin="miter" stroke-miterlimit="2" transform="matrix(0.75,0,0,0.75,0,0)"
font-family="Times New Roman" font-size="11" font-weight="400" font-style="normal" 
>
<path vector-effect="none" fill-rule="evenodd" d="M751.685,220.335 L751.685,184.605 L829.895,184.605 L829.895,220.335 L751.685,220.335"/>
</g>

<g fill="#d9d9d9" fill-opacity="1" stroke="#d9d9d9" stroke-opacity="1" stroke-width="1" stroke-linecap="square" stroke-linejoin="bevel" transform="matrix(0.75,0,0,0.75,584.093,148.603)"
font-family="Times New Roman" font-size="11" font-weight="400" font-style="normal" 
>
<text fill="#d9d9d9" fill-opacity="1" stroke="none" xml:space="preserve" x="0" y="0" font-family="Times New Roman" font-size="11" font-weight="400" font-style="normal" 
 >id, iq</text>
</g>

<g fill="#d9d9d9" fill-opacity="1" stroke="#d9d9d9" stroke-opacity="1" stroke-width="1" stroke-linecap="square" stroke-linejoin="bevel" transform="matrix(0.75,0,0,0.75,578.093,158.353)"
font-family="Times New Roman" font-size="11" font-weight="400" font-style="normal" 
>
<text fill="#d9d9d9" fill-opacity="1" stroke="none" xml:space="preserve" x="0" y="0" font-family="Times New Roman" font-size="11" font-weight="400" font-style="normal" 
 >P_in, eta</text>
</g>

<g fill="#f5f5f5" fill-opacity="1" stroke="none" transform="matrix(7.5e-05,0,0,7.5e-05,0,0)"
font-family="Times New Roman" font-size="11" font-weight="400" font-style="normal" 
>
<path vector-effect="none" fill-rule="evenodd" d="M4.9533e+06,2.7393e+06 L4.9533e+06,3.15615e+06 L6.38715e+06,3.15615e+06 L6.38715e+06,2.7393e+06 L4.9533e+06,2.7393e+06"/>
</g>

<g fill="none" stroke="#333333" stroke-opacity="1" stroke-width="1.33333" stroke-linecap="butt" stroke-linejoin="miter" stroke-miterlimit="2" transform="matrix(0.75,0,0,0.75,0,0)"
font-family="Times New Roman" font-size="11" font-weight="400" font-style="normal" 
>
<path vector-effect="none" fill-rule="evenodd" d="M495.33,315.615 L495.33,273.93 L638.715,273.93 L638.715,315.615 L495.33,315.615"/>
</g>

<g fill="#d9d9d9" fill-opacity="1" stroke="#d9d9d9" stroke-opacity="1" stroke-width="1" stroke-linecap="square" stroke-linejoin="bevel" transform="matrix(0.75,0,0,0.75,388.517,222.704)"
font-family="Times New Roman" font-size="11" font-weight="400" font-style="normal" 
>
<text fill="#d9d9d9" fill-opacity="1" stroke="none" xml:space="preserve" x="0" y="0" font-family="Times New Roman" font-size="11" font-weight="400" font-style="normal" 
 >SteadyState_Detector</text>
</g>

<g fill="#f5f5f5" fill-opacity="1" stroke="none" transform="matrix(7.5e-05,0,0,7.5e-05,0,0)"
font-family="Times New Roman" font-size="11" font-weight="400" font-style="normal" 
>
<path vector-effect="none" fill-rule="evenodd" d="M2.99805e+06,2.7393e+06 L2.99805e+06,3.15615e+06 L4.4319e+06,3.15615e+06 L4.4319e+06,2.7393e+06 L2.99805e+06,2.7393e+06"/>
</g>

<g fill="none" stroke="#333333" stroke-opacity="1" stroke-width="1.33333" stroke-linecap="butt" stroke-linejoin="miter" stroke-miterlimit="2" transform="matrix(0.75,0,0,0.75,0,0)"
font-family="Times New Roman" font-size="11" font-weight="400" font-style="normal" 
>
<path vector-effect="none" fill-rule="evenodd" d="M299.805,315.615 L299.805,273.93 L443.19,273.93 L443.19,315.615 L299.805,315.615"/>
</g>

<g fill="#d9d9d9" fill-opacity="1" stroke="#d9d9d9" stroke-opacity="1" stroke-width="1" stroke-linecap="square" stroke-linejoin="bevel" transform="matrix(0.75,0,0,0.75,240.373,222.704)"
font-family="Times New Roman" font-size="11" font-weight="400" font-style="normal" 
>
<text fill="#d9d9d9" fill-opacity="1" stroke="none" xml:space="preserve" x="0" y="0" font-family="Times New Roman" font-size="11" font-weight="400" font-style="normal" 
 >ModelFree_Optimizer</text>
</g>

<g fill="#f5f5f5" fill-opacity="1" stroke="none" transform="matrix(7.5e-05,0,0,7.5e-05,0,0)"
font-family="Times New Roman" font-size="11" font-weight="400" font-style="normal" 
>
<path vector-effect="none" fill-rule="evenodd" d="M955899,2.7393e+06 L955899,3.15615e+06 L2.56355e+06,3.15615e+06 L2.56355e+06,2.7393e+06 L955899,2.7393e+06"/>
</g>

<g fill="none" stroke="#333333" stroke-opacity="1" stroke-width="1.33333" stroke-linecap="butt" stroke-linejoin="miter" stroke-miterlimit="2" transform="matrix(0.75,0,0,0.75,0,0)"
font-family="Times New Roman" font-size="11" font-weight="400" font-style="normal" 
>
<path vector-effect="none" fill-rule="evenodd" d="M95.59,315.615 L95.59,273.93 L256.355,273.93 L256.355,315.615 L95.59,315.615"/>
</g>

<g fill="#d9d9d9" fill-opacity="1" stroke="#d9d9d9" stroke-opacity="1" stroke-width="1" stroke-linecap="square" stroke-linejoin="bevel" transform="matrix(0.75,0,0,0.75,83.6044,222.704)"
font-family="Times New Roman" font-size="11" font-weight="400" font-style="normal" 
>
<text fill="#d9d9d9" fill-opacity="1" stroke="none" xml:space="preserve" x="0" y="0" font-family="Times New Roman" font-size="11" font-weight="400" font-style="normal" 
 >Projection_or_Safety_Limit</text>
</g>

<g fill="#0d0d0d" fill-opacity="1" stroke="#0d0d0d" stroke-opacity="1" stroke-width="1" stroke-linecap="square" stroke-linejoin="bevel" transform="matrix(0.75,0,0,0.75,247.849,57.4531)"
font-family="Times New Roman" font-size="11" font-weight="400" font-style="normal" 
>
<text fill="#0d0d0d" fill-opacity="1" stroke="none" xml:space="preserve" x="0" y="0" font-family="Times New Roman" font-size="11" font-weight="400" font-style="normal" 
 >Main speed/current vector-control loop</text>
</g>

<g fill="#0d0d0d" fill-opacity="1" stroke="#0d0d0d" stroke-opacity="1" stroke-width="1" stroke-linecap="square" stroke-linejoin="bevel" transform="matrix(0.75,0,0,0.75,165.864,255.457)"
font-family="Times New Roman" font-size="11" font-weight="400" font-style="normal" 
>
<text fill="#0d0d0d" fill-opacity="1" stroke="none" xml:space="preserve" x="0" y="0" font-family="Times New Roman" font-size="11" font-weight="400" font-style="normal" 
 >Outer model-free power-feedback efficiency optimization loop</text>
</g>

<g fill="#0d0d0d" fill-opacity="1" stroke="#0d0d0d" stroke-opacity="1" stroke-width="1.53333" stroke-linecap="butt" stroke-linejoin="round" transform="matrix(0.75,0,0,0.75,0,0)"
font-family="Times New Roman" font-size="11" font-weight="400" font-style="normal" 
>
<polyline fill="none" vector-effect="none" points="112.97,113.145 149.487,113.145 " />
</g>

<g fill="none" stroke="#0d0d0d" stroke-opacity="1" stroke-width="0.666667" stroke-linecap="butt" stroke-linejoin="round" transform="matrix(0.75,0,0,0.75,0,0)"
font-family="Times New Roman" font-size="11" font-weight="400" font-style="normal" 
>
<path vector-effect="none" fill-rule="evenodd" d="M145.753,109.145 L156.42,113.145 L149.487,113.145 L145.753,109.145"/>
<path vector-effect="none" fill-rule="evenodd" d="M156.42,113.145 L145.753,117.145 L149.487,113.145 L156.42,113.145"/>
</g>

<g fill="#0d0d0d" fill-opacity="1" stroke="none" transform="matrix(7.5e-05,0,0,7.5e-05,0,0)"
font-family="Times New Roman" font-size="11" font-weight="400" font-style="normal" 
>
<path vector-effect="none" fill-rule="evenodd" d="M1.5642e+06,1.13145e+06 L1.45753e+06,1.09145e+06 L1.49487e+06,1.13145e+06 L1.45753e+06,1.17145e+06 L1.5642e+06,1.13145e+06"/>
</g>

<g fill="#0d0d0d" fill-opacity="1" stroke="#0d0d0d" stroke-opacity="1" stroke-width="1.53333" stroke-linecap="butt" stroke-linejoin="round" transform="matrix(0.75,0,0,0.75,0,0)"
font-family="Times New Roman" font-size="11" font-weight="400" font-style="normal" 
>
<polyline fill="none" vector-effect="none" points="291.115,115.13 331.977,115.13 " />
</g>

<g fill="none" stroke="#0d0d0d" stroke-opacity="1" stroke-width="0.666667" stroke-linecap="butt" stroke-linejoin="round" transform="matrix(0.75,0,0,0.75,0,0)"
font-family="Times New Roman" font-size="11" font-weight="400" font-style="normal" 
>
<path vector-effect="none" fill-rule="evenodd" d="M328.243,111.13 L338.91,115.13 L331.977,115.13 L328.243,111.13"/>
<path vector-effect="none" fill-rule="evenodd" d="M338.91,115.13 L328.243,119.13 L331.977,115.13 L338.91,115.13"/>
</g>

<g fill="#0d0d0d" fill-opacity="1" stroke="none" transform="matrix(7.5e-05,0,0,7.5e-05,0,0)"
font-family="Times New Roman" font-size="11" font-weight="400" font-style="normal" 
>
<path vector-effect="none" fill-rule="evenodd" d="M3.3891e+06,1.1513e+06 L3.28243e+06,1.1113e+06 L3.31977e+06,1.1513e+06 L3.28243e+06,1.1913e+06 L3.3891e+06,1.1513e+06"/>
</g>

<g fill="#0d0d0d" fill-opacity="1" stroke="#0d0d0d" stroke-opacity="1" stroke-width="1.53333" stroke-linecap="butt" stroke-linejoin="round" transform="matrix(0.75,0,0,0.75,0,0)"
font-family="Times New Roman" font-size="11" font-weight="400" font-style="normal" 
>
<polyline fill="none" vector-effect="none" points="482.295,115.13 531.847,115.13 " />
</g>

<g fill="none" stroke="#0d0d0d" stroke-opacity="1" stroke-width="0.666667" stroke-linecap="butt" stroke-linejoin="round" transform="matrix(0.75,0,0,0.75,0,0)"
font-family="Times New Roman" font-size="11" font-weight="400" font-style="normal" 
>
<path vector-effect="none" fill-rule="evenodd" d="M528.113,111.13 L538.78,115.13 L531.847,115.13 L528.113,111.13"/>
<path vector-effect="none" fill-rule="evenodd" d="M538.78,115.13 L528.113,119.13 L531.847,115.13 L538.78,115.13"/>
</g>

<g fill="#0d0d0d" fill-opacity="1" stroke="none" transform="matrix(7.5e-05,0,0,7.5e-05,0,0)"
font-family="Times New Roman" font-size="11" font-weight="400" font-style="normal" 
>
<path vector-effect="none" fill-rule="evenodd" d="M5.3878e+06,1.1513e+06 L5.28113e+06,1.1113e+06 L5.31847e+06,1.1513e+06 L5.28113e+06,1.1913e+06 L5.3878e+06,1.1513e+06"/>
</g>

<g fill="#0d0d0d" fill-opacity="1" stroke="#0d0d0d" stroke-opacity="1" stroke-width="1.53333" stroke-linecap="butt" stroke-linejoin="round" transform="matrix(0.75,0,0,0.75,0,0)"
font-family="Times New Roman" font-size="11" font-weight="400" font-style="normal" 
>
<polyline fill="none" vector-effect="none" points="682.165,113.145 744.752,113.145 " />
</g>

<g fill="none" stroke="#0d0d0d" stroke-opacity="1" stroke-width="0.666667" stroke-linecap="butt" stroke-linejoin="round" transform="matrix(0.75,0,0,0.75,0,0)"
font-family="Times New Roman" font-size="11" font-weight="400" font-style="normal" 
>
<path vector-effect="none" fill-rule="evenodd" d="M741.018,109.145 L751.685,113.145 L744.752,113.145 L741.018,109.145"/>
<path vector-effect="none" fill-rule="evenodd" d="M751.685,113.145 L741.018,117.145 L744.752,113.145 L751.685,113.145"/>
</g>

<g fill="#0d0d0d" fill-opacity="1" stroke="none" transform="matrix(7.5e-05,0,0,7.5e-05,0,0)"
font-family="Times New Roman" font-size="11" font-weight="400" font-style="normal" 
>
<path vector-effect="none" fill-rule="evenodd" d="M7.51685e+06,1.13145e+06 L7.41018e+06,1.09145e+06 L7.44752e+06,1.13145e+06 L7.41018e+06,1.17145e+06 L7.51685e+06,1.13145e+06"/>
</g>

<g fill="#0d0d0d" fill-opacity="1" stroke="#0d0d0d" stroke-opacity="1" stroke-width="1.53333" stroke-linecap="butt" stroke-linejoin="round" transform="matrix(0.75,0,0,0.75,0,0)"
font-family="Times New Roman" font-size="11" font-weight="400" font-style="normal" 
>
<polyline fill="none" vector-effect="none" points="610.038,65.505 610.038,84.3767 " />
</g>

<g fill="none" stroke="#0d0d0d" stroke-opacity="1" stroke-width="0.666667" stroke-linecap="butt" stroke-linejoin="round" transform="matrix(0.75,0,0,0.75,0,0)"
font-family="Times New Roman" font-size="11" font-weight="400" font-style="normal" 
>
<path vector-effect="none" fill-rule="evenodd" d="M614.038,80.6433 L610.038,91.31 L610.038,84.3767 L614.038,80.6433"/>
<path vector-effect="none" fill-rule="evenodd" d="M610.038,91.31 L606.038,80.6433 L610.038,84.3767 L610.038,91.31"/>
</g>

<g fill="#0d0d0d" fill-opacity="1" stroke="none" transform="matrix(7.5e-05,0,0,7.5e-05,0,0)"
font-family="Times New Roman" font-size="11" font-weight="400" font-style="normal" 
>
<path vector-effect="none" fill-rule="evenodd" d="M6.10038e+06,913100 L6.14038e+06,806433 L6.10038e+06,843766 L6.06038e+06,806433 L6.10038e+06,913100"/>
</g>

<g fill="#0d0d0d" fill-opacity="1" stroke="#0d0d0d" stroke-opacity="1" stroke-width="1.4" stroke-linecap="butt" stroke-linejoin="round" transform="matrix(0.75,0,0,0.75,0,0)"
font-family="Times New Roman" font-size="11" font-weight="400" font-style="normal" 
>
<polyline fill="none" vector-effect="none" points="725.615,113.145 725.615,244.155 " />
<polyline fill="none" vector-effect="none" points="725.615,244.155 221.595,244.155 " />
</g>

<g fill="#0d0d0d" fill-opacity="1" stroke="#0d0d0d" stroke-opacity="1" stroke-width="1.53333" stroke-linecap="butt" stroke-linejoin="round" transform="matrix(0.75,0,0,0.75,0,0)"
font-family="Times New Roman" font-size="11" font-weight="400" font-style="normal" 
>
<polyline fill="none" vector-effect="none" points="221.595,244.155 221.595,145.883 " />
</g>

<g fill="none" stroke="#0d0d0d" stroke-opacity="1" stroke-width="0.666667" stroke-linecap="butt" stroke-linejoin="round" transform="matrix(0.75,0,0,0.75,0,0)"
font-family="Times New Roman" font-size="11" font-weight="400" font-style="normal" 
>
<path vector-effect="none" fill-rule="evenodd" d="M217.595,149.617 L221.595,138.95 L221.595,145.883 L217.595,149.617"/>
<path vector-effect="none" fill-rule="evenodd" d="M221.595,138.95 L225.595,149.617 L221.595,145.883 L221.595,138.95"/>
</g>

<g fill="#0d0d0d" fill-opacity="1" stroke="none" transform="matrix(7.5e-05,0,0,7.5e-05,0,0)"
font-family="Times New Roman" font-size="11" font-weight="400" font-style="normal" 
>
<path vector-effect="none" fill-rule="evenodd" d="M2.21595e+06,1.3895e+06 L2.17595e+06,1.49617e+06 L2.21595e+06,1.45883e+06 L2.25595e+06,1.49617e+06 L2.21595e+06,1.3895e+06"/>
</g>

<g fill="#0d0d0d" fill-opacity="1" stroke="#0d0d0d" stroke-opacity="1" stroke-width="1.53333" stroke-linecap="butt" stroke-linejoin="round" transform="matrix(0.75,0,0,0.75,0,0)"
font-family="Times New Roman" font-size="11" font-weight="400" font-style="normal" 
>
<polyline fill="none" vector-effect="none" points="410.168,174.68 410.168,145.883 " />
</g>

<g fill="none" stroke="#0d0d0d" stroke-opacity="1" stroke-width="0.666667" stroke-linecap="butt" stroke-linejoin="round" transform="matrix(0.75,0,0,0.75,0,0)"
font-family="Times New Roman" font-size="11" font-weight="400" font-style="normal" 
>
<path vector-effect="none" fill-rule="evenodd" d="M406.168,149.617 L410.168,138.95 L410.168,145.883 L406.168,149.617"/>
<path vector-effect="none" fill-rule="evenodd" d="M410.168,138.95 L414.168,149.617 L410.168,145.883 L410.168,138.95"/>
</g>

<g fill="#0d0d0d" fill-opacity="1" stroke="none" transform="matrix(7.5e-05,0,0,7.5e-05,0,0)"
font-family="Times New Roman" font-size="11" font-weight="400" font-style="normal" 
>
<path vector-effect="none" fill-rule="evenodd" d="M4.10168e+06,1.3895e+06 L4.06168e+06,1.49617e+06 L4.10168e+06,1.45883e+06 L4.14168e+06,1.49617e+06 L4.10168e+06,1.3895e+06"/>
</g>

<g fill="#0d0d0d" fill-opacity="1" stroke="#0d0d0d" stroke-opacity="1" stroke-width="1.53333" stroke-linecap="butt" stroke-linejoin="round" transform="matrix(0.75,0,0,0.75,0,0)"
font-family="Times New Roman" font-size="11" font-weight="400" font-style="normal" 
>
<polyline fill="none" vector-effect="none" points="610.038,138.95 610.038,173.702 " />
</g>

<g fill="none" stroke="#0d0d0d" stroke-opacity="1" stroke-width="0.666667" stroke-linecap="butt" stroke-linejoin="round" transform="matrix(0.75,0,0,0.75,0,0)"
font-family="Times New Roman" font-size="11" font-weight="400" font-style="normal" 
>
<path vector-effect="none" fill-rule="evenodd" d="M614.038,169.968 L610.038,180.635 L610.038,173.702 L614.038,169.968"/>
<path vector-effect="none" fill-rule="evenodd" d="M610.038,180.635 L606.038,169.968 L610.038,173.702 L610.038,180.635"/>
</g>

<g fill="#0d0d0d" fill-opacity="1" stroke="none" transform="matrix(7.5e-05,0,0,7.5e-05,0,0)"
font-family="Times New Roman" font-size="11" font-weight="400" font-style="normal" 
>
<path vector-effect="none" fill-rule="evenodd" d="M6.10038e+06,1.80635e+06 L6.14038e+06,1.69968e+06 L6.10038e+06,1.73702e+06 L6.06038e+06,1.69968e+06 L6.10038e+06,1.80635e+06"/>
</g>

<g fill="#0d0d0d" fill-opacity="1" stroke="#0d0d0d" stroke-opacity="1" stroke-width="1.53333" stroke-linecap="butt" stroke-linejoin="round" transform="matrix(0.75,0,0,0.75,0,0)"
font-family="Times New Roman" font-size="11" font-weight="400" font-style="normal" 
>
<polyline fill="none" vector-effect="none" points="699.545,203.264 744.752,203.264 " />
</g>

<g fill="none" stroke="#0d0d0d" stroke-opacity="1" stroke-width="0.666667" stroke-linecap="butt" stroke-linejoin="round" transform="matrix(0.75,0,0,0.75,0,0)"
font-family="Times New Roman" font-size="11" font-weight="400" font-style="normal" 
>
<path vector-effect="none" fill-rule="evenodd" d="M741.018,199.264 L751.685,203.264 L744.752,203.264 L741.018,199.264"/>
<path vector-effect="none" fill-rule="evenodd" d="M751.685,203.264 L741.018,207.264 L744.752,203.264 L751.685,203.264"/>
</g>

<g fill="#0d0d0d" fill-opacity="1" stroke="none" transform="matrix(7.5e-05,0,0,7.5e-05,0,0)"
font-family="Times New Roman" font-size="11" font-weight="400" font-style="normal" 
>
<path vector-effect="none" fill-rule="evenodd" d="M7.51685e+06,2.03264e+06 L7.41018e+06,1.99264e+06 L7.44752e+06,2.03264e+06 L7.41018e+06,2.07264e+06 L7.51685e+06,2.03264e+06"/>
</g>

<g fill="#0d0d0d" fill-opacity="1" stroke="#0d0d0d" stroke-opacity="1" stroke-width="1.53333" stroke-linecap="butt" stroke-linejoin="round" transform="matrix(0.75,0,0,0.75,0,0)"
font-family="Times New Roman" font-size="11" font-weight="400" font-style="normal" 
>
<polyline fill="none" vector-effect="none" points="599.61,226.29 599.61,266.997 " />
</g>

<g fill="none" stroke="#0d0d0d" stroke-opacity="1" stroke-width="0.666667" stroke-linecap="butt" stroke-linejoin="round" transform="matrix(0.75,0,0,0.75,0,0)"
font-family="Times New Roman" font-size="11" font-weight="400" font-style="normal" 
>
<path vector-effect="none" fill-rule="evenodd" d="M603.61,263.263 L599.61,273.93 L599.61,266.997 L603.61,263.263"/>
<path vector-effect="none" fill-rule="evenodd" d="M599.61,273.93 L595.61,263.263 L599.61,266.997 L599.61,273.93"/>
</g>

<g fill="#0d0d0d" fill-opacity="1" stroke="none" transform="matrix(7.5e-05,0,0,7.5e-05,0,0)"
font-family="Times New Roman" font-size="11" font-weight="400" font-style="normal" 
>
<path vector-effect="none" fill-rule="evenodd" d="M5.9961e+06,2.7393e+06 L6.0361e+06,2.63263e+06 L5.9961e+06,2.66997e+06 L5.9561e+06,2.63263e+06 L5.9961e+06,2.7393e+06"/>
</g>

<g fill="#0d0d0d" fill-opacity="1" stroke="#0d0d0d" stroke-opacity="1" stroke-width="1.53333" stroke-linecap="butt" stroke-linejoin="round" transform="matrix(0.75,0,0,0.75,0,0)"
font-family="Times New Roman" font-size="11" font-weight="400" font-style="normal" 
>
<polyline fill="none" vector-effect="none" points="495.33,294.574 450.123,294.574 " />
</g>

<g fill="none" stroke="#0d0d0d" stroke-opacity="1" stroke-width="0.666667" stroke-linecap="butt" stroke-linejoin="round" transform="matrix(0.75,0,0,0.75,0,0)"
font-family="Times New Roman" font-size="11" font-weight="400" font-style="normal" 
>
<path vector-effect="none" fill-rule="evenodd" d="M453.857,298.574 L443.19,294.574 L450.123,294.574 L453.857,298.574"/>
<path vector-effect="none" fill-rule="evenodd" d="M443.19,294.574 L453.857,290.574 L450.123,294.574 L443.19,294.574"/>
</g>

<g fill="#0d0d0d" fill-opacity="1" stroke="none" transform="matrix(7.5e-05,0,0,7.5e-05,0,0)"
font-family="Times New Roman" font-size="11" font-weight="400" font-style="normal" 
>
<path vector-effect="none" fill-rule="evenodd" d="M4.4319e+06,2.94574e+06 L4.53857e+06,2.98574e+06 L4.50123e+06,2.94574e+06 L4.53857e+06,2.90574e+06 L4.4319e+06,2.94574e+06"/>
</g>

<g fill="#0d0d0d" fill-opacity="1" stroke="#0d0d0d" stroke-opacity="1" stroke-width="1.53333" stroke-linecap="butt" stroke-linejoin="round" transform="matrix(0.75,0,0,0.75,0,0)"
font-family="Times New Roman" font-size="11" font-weight="400" font-style="normal" 
>
<polyline fill="none" vector-effect="none" points="299.805,294.574 263.288,294.574 " />
</g>

<g fill="none" stroke="#0d0d0d" stroke-opacity="1" stroke-width="0.666667" stroke-linecap="butt" stroke-linejoin="round" transform="matrix(0.75,0,0,0.75,0,0)"
font-family="Times New Roman" font-size="11" font-weight="400" font-style="normal" 
>
<path vector-effect="none" fill-rule="evenodd" d="M267.022,298.574 L256.355,294.574 L263.288,294.574 L267.022,298.574"/>
<path vector-effect="none" fill-rule="evenodd" d="M256.355,294.574 L267.022,290.574 L263.288,294.574 L256.355,294.574"/>
</g>

<g fill="#0d0d0d" fill-opacity="1" stroke="none" transform="matrix(7.5e-05,0,0,7.5e-05,0,0)"
font-family="Times New Roman" font-size="11" font-weight="400" font-style="normal" 
>
<path vector-effect="none" fill-rule="evenodd" d="M2.56355e+06,2.94574e+06 L2.67022e+06,2.98574e+06 L2.63288e+06,2.94574e+06 L2.67022e+06,2.90574e+06 L2.56355e+06,2.94574e+06"/>
</g>

<g fill="#0d0d0d" fill-opacity="1" stroke="#0d0d0d" stroke-opacity="1" stroke-width="1.4" stroke-linecap="butt" stroke-linejoin="round" transform="matrix(0.75,0,0,0.75,0,0)"
font-family="Times New Roman" font-size="11" font-weight="400" font-style="normal" 
>
<polyline fill="none" vector-effect="none" points="176.407,273.93 176.407,216.365 " />
</g>

<g fill="#0d0d0d" fill-opacity="1" stroke="#0d0d0d" stroke-opacity="1" stroke-width="1.53333" stroke-linecap="butt" stroke-linejoin="round" transform="matrix(0.75,0,0,0.75,0,0)"
font-family="Times New Roman" font-size="11" font-weight="400" font-style="normal" 
>
<polyline fill="none" vector-effect="none" points="176.407,216.365 336.376,196.191 " />
</g>

<g fill="none" stroke="#0d0d0d" stroke-opacity="1" stroke-width="0.666667" stroke-linecap="butt" stroke-linejoin="round" transform="matrix(0.75,0,0,0.75,0,0)"
font-family="Times New Roman" font-size="11" font-weight="400" font-style="normal" 
>
<path vector-effect="none" fill-rule="evenodd" d="M332.172,192.69 L343.255,195.324 L336.376,196.191 L332.172,192.69"/>
<path vector-effect="none" fill-rule="evenodd" d="M343.255,195.324 L333.173,200.627 L336.376,196.191 L343.255,195.324"/>
</g>

<g fill="#0d0d0d" fill-opacity="1" stroke="none" transform="matrix(7.5e-05,0,0,7.5e-05,0,0)"
font-family="Times New Roman" font-size="11" font-weight="400" font-style="normal" 
>
<path vector-effect="none" fill-rule="evenodd" d="M3.43255e+06,1.95324e+06 L3.32172e+06,1.9269e+06 L3.36376e+06,1.96191e+06 L3.33173e+06,2.00627e+06 L3.43255e+06,1.95324e+06"/>
</g>
</g>
</svg>
